<svg xmlns="http://www.w3.org/2000/svg" fill-rule="evenodd" stroke-linecap="round" stroke-linejoin="round" stroke-miterlimit="1.5" clip-rule="evenodd" viewBox="0 0 781 227">
  <path fill="none" stroke="#fff" stroke-width="8" d="M1493.23 318.519c.11-1.282-.48.798-.78 1.733-5.86 18.616-12.6 36.947-18.77 55.463-8.86 26.579-14.89 54.046-22.19 81.061-4.86 17.976-4.29 17.712-9.38 32.425-2.49 7.172-11.91 25.579-5.12 22.185" transform="matrix(.5851 0 0 .5851 -768.211 -157.25)"/>
  <path fill="none" stroke="#fff" stroke-width="8" d="M1566.01 343.317c.37-.951 4.43-8.483 4.09-8.559-4.26-.936-104.84 69.306-117.75 76.795-6.36 3.687-29.59 12.844-30.72 19.625-1.99 11.941 20.31 24.054 27.3 33.278 29.69 39.192 56.85 79.584 85.33 119.458" transform="matrix(.5851 0 0 .5851 -768.211 -157.25)"/>
  <path fill="none" stroke="#fff" stroke-width="8" d="M1538.09 432.645c11.36-27.904 1.43 7.692-4.68 36.931-1.79 8.533-4.42 23.066-4.27 22.185 2.82-16.907 21.44-62.581 43.52-66.556 18.61-3.351-32.78 104.901 2.56 51.197" transform="matrix(.5851 0 0 .5851 -768.211 -157.25)"/>
  <path fill="none" stroke="#fff" stroke-width="8" d="M1602.61 397.42c-.53-2.187-7.34-7.199-2.65-7.199" transform="matrix(.5851 0 0 .5851 -768.211 -157.25)"/>
  <path fill="none" stroke="#fff" stroke-width="8" d="M1622.18 437.524c-4.45-56.299-3.17 60.598-21.36 45.704-4.39-3.589-9.38-11.047-11.1-16.212" transform="matrix(.5851 0 0 .5851 -768.211 -157.25)"/>
  <path fill="none" stroke="#fff" stroke-width="8" d="M1638.11 425.845c-3.24.474-2.76-2.712 1.96-3.2 15.39-1.592 30.67 0 46.07 0" transform="matrix(.5851 0 0 .5851 -768.211 -157.25)"/>
  <path fill="none" stroke="#fff" stroke-width="8" d="M1686.7 366.169c.04.02-5.27-4.914-7.38-3.253-4.8 3.77-5.56 12.513-6.83 17.919-2.29 9.737-23.84 88.003-6.83 96.42 15.73 7.777 34.88-28.249 40.11-36.691 2.41-3.899 8.09-16.355 6.83-11.946-1.88 6.575-4.06 13.061-5.98 19.626-.96 3.293-2.99 9.195-3.41 12.799-2.41 20.657 33.06-26.648 38.4-13.653 8.21 20.004-9.73 78.302-13.66 97.274-10.37 50.143-17.77 73.764-22.18 70.822-8.93-5.951-1.66-28.474 0-35.838 9.17-40.752 25.09-80.358 46.93-116.045 2.73-4.464 22.34-36.415 29.01-34.985 2.87.616-15.11 48.525-12.8 52.903.08.143 20.85-36.228 28.16-37.544 1.95-.35-1.76 20.201 3.41 22.185 13.77 5.284 38.32-21 37.55-22.185-4.28-6.539-32.41 24.322-25.85 34.741 7.82 12.411 38.42-33.575 32.67-38.154-6.7-5.341-18.73 26.093-15.15 38.279 5 17 28.41 19.269 43.32 18.027 67.49-5.624 114.49-144.417 13.64-139.074" transform="matrix(.5851 0 0 .5851 -768.211 -157.25)"/>
  <path fill="none" stroke="#fff" stroke-width="8" d="M1755.84 325.889c.31-2.231-4.53-7.273-2.52-6.266 11.53 5.763.81 37.309-.85 43.517" transform="matrix(.5851 0 0 .5851 -768.211 -157.25)"/>
  <path fill="none" stroke="#fff" stroke-width="8" d="M1548.29 717.329c4.9-1.581 5.06-8.992 7.07-13.732 21.29-50.177-13.63-77.349-50.34-34.985-6.91 7.978-13.49 15.344-18.43 24.805-7.27 13.942-11.45 29.221-13.59 44.737-1.65 11.953-8.8 41.154 4.14 49.778 24.03 16.021 59.12-51.66 66.11-65.119 5.73-11.02 5.55-11.686 11.26-23.483 2.22-4.58 4.64-9.058 6.83-13.652.66-1.383 2.19-5.72 1.7-4.266-16.4 49.213-22.81 102.243-34.98 152.736-4.61 19.12-9.52 39.396-13.65 58.876-4.85 22.839-5.1 23.918-5.98 23.038-8.28-8.285-6.13-27.131-6.82-37.544-.9-13.522-5.88-31.537-1.71-45.223 5.18-16.995 58.14-71.771 72.53-94.714 4.44-7.083 28.83-52.986 23.89-56.316-17.8-12.011-39.66 97.715-24.74 105.806 13.22 7.169 34.53-34.035 38.39-40.104 7.06-11.093 6.87-10.355 11.1-21.332.32-.839 1.25-3.364.85-2.56-10.89 21.781-20.74 55.97-14.51 57.17 10.74 2.064 27.31-26.972 30.72-31.571 3.53-4.751 7.06-9.513 10.24-14.506 1.16-1.828 3.25-8.028 2.56-5.973-.63 1.894-28.24 70.467.85 46.077" transform="matrix(.5851 0 0 .5851 -441.822 -333.27)"/>
  <path fill="none" stroke="#fff" stroke-width="8" d="M1676.41 698.317c1.63 2.28-2.72-6.392-.73-8.373" transform="matrix(.5851 0 0 .5851 -441.822 -333.27)"/>
  <path fill="none" stroke="#fff" stroke-width="8" d="M1700.82 743.381c-1.81-2.433 3.46-27.134.45-26.132-14.11 4.705-19.55 105.13-40.1 53.756" transform="matrix(.5851 0 0 .5851 -441.822 -333.27)"/>
  <path fill="none" stroke="#fff" stroke-width="8" d="M1736.63 746.554c-.86-.672-.5-.197.48-2 .77-1.418 11.92-27.702 7.68-27.305-10.84 1.014-20.93 54.484-24.74 63.142-7.09 16.07-11.77-6.869-16.22-12.799" transform="matrix(.5851 0 0 .5851 -441.822 -333.27)"/>
  <path fill="none" stroke="#fff" stroke-width="8" d="M1756.31 763.753c-3.89 3.921 2.05-3.579 2.99-4.693 11.32-13.42 17.94-21.156 26.45-34.985 2.13-3.468 7.66-14.272 5.12-11.092-4.2 5.249-6.74 11.956-9.39 17.919-2.64 5.938-5.24 11.896-7.68 17.918-22.27 54.928 7.48-20.3 32.43-27.305 2.31-.65 1.61 4.753 1.18 7.12-.75 4.11-18.82 37.796-10.57 44.077 14.92 11.366 49.32-38.626 52.9-51.197.56-1.955 2.45-6.077-.68-6.861-10.26-2.565-25.88 42.626-12.97 51.232 14.69 9.793 40.66-33.091 44.37-38.398 2.62-3.742 8.75-19.2 9.39-17.918 1.35 2.7 1.14 8.554 1.7 11.092.27 1.186 4.28 4.251 4.27 4.267-2.63 7.879-29.84 50.435-12.8 57.169 29.3 11.574 64.46-23.462 80.21-44.37 5.99-7.959 18.24-34.245 17.92-33.278" transform="matrix(.5851 0 0 .5851 -441.822 -333.27)"/>
</svg>
