<svg version="1.2" baseProfile="tiny-ps" xmlns="http://www.w3.org/2000/svg" width="1000" height="905"><style>.shp0{fill:#f8f9f9}</style><g id="Background"><g id="Složka 1"><path id="Path 0" class="shp0" d="M647.5 13.94c-1.65.4-5.02 1.77-7.5 3.03-2.48 1.27-5.85 3.44-7.5 4.83-1.65 1.39-4.87 4.82-7.16 7.61-2.29 2.8-7.74 11.61-12.11 19.59-4.38 7.98-11 20.58-14.73 28-3.73 7.42-8.63 16.38-10.89 19.9-3.84 5.98-4.74 6.72-13.61 11.15-5.23 2.61-13.66 7.49-18.75 10.84-5.09 3.36-12.75 9.6-17.03 13.86-5.23 5.21-8.96 10.04-11.39 14.75-1.99 3.85-4.39 10.38-5.33 14.5-.93 4.13-2.55 10.2-3.58 13.5-1.04 3.3-3.05 7.57-4.47 9.5-1.42 1.93-4.01 4.49-5.77 5.71-1.75 1.21-5.2 2.74-7.68 3.4-2.48.66-5.74.91-7.25.55-1.6-.39-3.57-2.02-4.71-3.91-1.08-1.79-2.86-6.85-3.96-11.25s-2.47-12.28-3.05-17.5c-.57-5.22-1.5-24.12-2.07-42-.57-17.87-1.48-34.97-2.03-38-.55-3.03-1.77-6.33-2.71-7.35-.95-1.02-2.96-2.49-4.47-3.25-1.51-.77-4.44-1.39-6.5-1.38-2.06.01-5.5.57-7.64 1.25-2.14.67-5.09 2.58-6.55 4.23-1.47 1.65-3.65 5.59-4.86 8.75-1.21 3.16-3.19 10.36-4.39 16-1.79 8.36-2.2 13.66-2.25 28.75-.05 13.97.36 20.46 1.67 26.5.95 4.4 3.71 13.4 6.14 20 2.43 6.6 4.73 13.8 5.12 16 .42 2.38.27 4.91-.39 6.25-.88 1.8-1.7 2.15-4.1 1.75-1.65-.28-4.91-1.69-7.25-3.15-2.34-1.45-5.82-2.85-7.75-3.11-2.58-.35-5.21.36-10 2.72-3.57 1.75-6.95 2.97-7.5 2.71-.57-.27-.74-2.11-.39-4.32.33-2.12.22-6.32-.25-9.35-.46-3.03-2.45-8.87-4.42-13-1.96-4.12-4.77-8.78-6.25-10.35-1.48-1.57-4.49-4.09-6.69-5.61-2.2-1.52-6.7-3.77-10-5-4.62-1.72-7.38-2.12-12-1.76-4.81.39-6.35.95-7.79 2.85-1.2 1.58-1.78 4.04-1.74 7.37.03 2.75.71 7.47 1.51 10.5.81 3.03 3.07 9.32 5.03 14 1.96 4.68 5.69 11.61 8.28 15.41 2.98 4.37 9.09 10.81 16.62 17.5 7.75 6.89 12.74 12.16 14.28 15.09 1.29 2.47 2.34 5.96 2.33 7.75-.01 1.79-.88 4.94-1.94 7-1.05 2.06-4.09 5.85-6.75 8.41-2.66 2.57-7.08 5.98-9.83 7.59-2.75 1.6-7.25 3.63-10 4.51-2.75.88-6.8 1.88-9 2.23-2.58.4-5.77.05-9-1.01-2.75-.9-9.27-3.78-14.5-6.39s-13.32-7.26-18-10.33c-4.68-3.07-11-8.22-14.05-11.43-3.22-3.38-7.69-9.81-10.64-15.33-2.81-5.22-7.1-12.2-9.54-15.5-2.45-3.3-4.84-6.9-5.32-8-.49-1.1-.89-12.57-.91-25.5-.04-21.95-.19-23.86-2.27-29-1.23-3.03-3.7-7.25-5.5-9.39-1.8-2.15-5.07-4.79-7.27-5.87-3.14-1.55-5.5-1.9-11-1.6-5.7.3-8.58 1.14-15.5 4.5-4.68 2.27-10.58 5.64-13.13 7.49-2.54 1.86-6.59 5.19-9 7.4-2.4 2.22-6.02 6.05-8.04 8.5-2.02 2.46-5.05 7.4-6.74 10.97-1.69 3.57-3.58 8.97-4.2 12-.62 3.03-.93 9.32-.69 14 .28 5.47 1.14 10.1 2.42 13 1.09 2.47 3.98 6.67 6.43 9.33 2.45 2.66 6.25 5.87 8.45 7.14 2.2 1.27 10.97 5.12 19.5 8.55 8.53 3.44 19.77 8.39 25 10.99 5.23 2.61 11.75 6.43 14.5 8.48 2.75 2.06 7.4 6.05 10.33 8.88 2.93 2.82 8.05 8.73 11.37 13.13 3.33 4.4 7.34 10.59 8.93 13.75 1.58 3.16 3.54 8.56 4.36 12 .81 3.44 1.49 9.85 1.5 14.25.01 4.4-.68 10.7-1.53 14-.85 3.3-2.7 8.25-4.12 11s-3.9 6.8-5.51 9c-1.62 2.2-10.45 11.61-19.63 20.9-9.19 9.3-18.72 18.27-21.2 19.93-2.48 1.66-6.75 3.79-9.5 4.73-2.75.95-9.72 2.28-15.5 2.96-7 .83-17.34 1.06-31 .67-11.28-.32-25-1.29-30.5-2.16-5.5-.87-14.72-2.69-20.5-4.04-5.78-1.35-12.07-3.49-14-4.76-1.93-1.26-6.43-4.79-10-7.83-4.92-4.19-7.83-5.85-12-6.86-3.51-.84-7.85-1.09-12-.67-3.58.35-9.65 1.59-13.5 2.75-3.85 1.16-9.25 3.24-12 4.64-2.75 1.39-6.52 3.7-8.38 5.13-1.85 1.44-4.07 3.96-4.92 5.61-1.03 1.98-1.55 5.71-1.54 11 0 6.11 1.01 11.9 4.23 24.5 2.32 9.07 5.04 17.85 6.04 19.5 1 1.65 3.56 4.11 5.69 5.46 2.13 1.36 5.91 2.76 8.38 3.13 2.47.36 7.65.28 11.5-.18 3.85-.47 11.28-2.47 16.5-4.45 5.22-1.98 14-4.88 19.5-6.44 5.5-1.57 13.38-4.26 17.5-5.99 4.13-1.72 10.88-4.05 15-5.18 4.74-1.29 12.11-2.25 20-2.59 9.58-.43 14.72-.14 22 1.21 5.22.97 18.95 4.82 30.5 8.55 11.55 3.74 23.65 7.39 26.88 8.13 4.64 1.06 6.6 2.15 9.25 5.1 1.85 2.06 3.86 5.66 4.47 8 .8 3.1.79 5.73-.03 9.75-.62 3.02-3.35 10-6.08 15.5-2.87 5.8-7.71 13.36-11.52 18-3.62 4.4-10.32 11.83-14.88 16.5-4.57 4.67-11.41 10.59-15.2 13.14-3.79 2.55-9.59 5.77-12.89 7.16-3.3 1.38-17.47 6.18-31.5 10.65-14.03 4.47-30.22 9.86-36 11.96-5.78 2.11-14.66 5.92-19.75 8.46-5.09 2.55-10.88 6.09-12.88 7.88-1.99 1.79-4.24 4.49-5 6-.75 1.51-1.37 3.65-1.37 4.75s1.35 3.35 3 5c2.85 2.85 3.43 3 11.25 3.01 4.54.01 12.75-.9 18.25-2.02s17.65-4.32 27-7.12c9.35-2.8 25.78-8.15 36.5-11.89 10.72-3.75 25.35-8.87 32.5-11.39 7.59-2.68 14.77-4.58 17.25-4.59 4.03 0 4.73.48 13.5 9.26 6.79 6.81 10.31 9.58 13.25 10.43 2.21.64 5.35 2.65 7.02 4.48 1.66 1.83 5.46 7.38 8.46 12.33 4.4 7.28 5.53 10.05 5.88 14.5.43 5.27.28 5.69-3.57 10-2.21 2.48-6.67 5.92-9.91 7.66-3.23 1.74-11.06 5.24-17.38 7.78-6.32 2.55-18.93 8.96-28 14.26-9.07 5.29-21.68 12.98-28 17.08-6.32 4.11-15.1 10.26-19.5 13.68-4.4 3.41-9.69 8.2-11.76 10.62-2.06 2.43-4.01 5.77-4.32 7.42-.44 2.4.01 3.56 2.26 5.77 1.55 1.52 4.85 3.45 7.32 4.28 2.47.84 8.78 1.95 14 2.46 6.12.61 13.41.58 20.5-.07 6.05-.55 14.82-1.91 19.5-3.01 4.68-1.1 14.8-4.52 22.5-7.59 7.7-3.08 19.63-8.4 26.5-11.84 6.88-3.44 16.77-8.85 22-12.02 5.23-3.18 12.2-7.06 15.5-8.63 3.3-1.56 7.69-2.85 9.75-2.85 2.75 0 4.5.74 6.54 2.75 2.12 2.09 3.21 4.68 4.5 10.75 1.12 5.3 2.49 8.85 4.03 10.5 1.29 1.38 4.55 4.01 7.26 5.85 2.71 1.84 5.8 4.54 6.87 6 1.42 1.94 1.89 4.05 1.75 7.9-.11 2.89-1.57 9.41-3.25 14.5-1.67 5.09-4.53 11.5-6.34 14.25-2.91 4.41-5.4 6.25-21.2 15.64-10.79 6.41-19.27 12.17-21.34 14.5-1.88 2.12-4.22 5.66-5.2 7.86-.97 2.2-2.47 7.26-3.32 11.25-.85 3.99-1.55 11.08-1.55 15.75 0 7.82.18 8.59 2.25 9.62 1.67.83 3.53.81 7.25-.08 2.75-.66 11.28-3.75 18.95-6.87 11.34-4.61 14.8-6.51 18.52-10.17 2.52-2.48 10.11-11.02 16.88-19s16.44-18.72 21.48-23.88c5.04-5.16 11.87-11.14 15.17-13.28 4.96-3.22 6.87-3.89 11-3.87 3.17.01 6.65.84 9.5 2.27 2.9 1.46 5.14 3.51 6.31 5.76 1.26 2.44 1.66 4.86 1.34 8-.26 2.48-1.56 6.98-2.87 10-1.32 3.02-4.03 7.98-6.03 11-2 3.02-7.03 9.44-11.19 14.25-4.16 4.81-8.51 10.66-9.67 13-1.57 3.16-2 5.53-1.68 9.25.24 2.75 1.07 7.15 1.86 9.78 1.3 4.35 1.23 6.01-.85 18.5-1.25 7.55-2.26 15.18-2.25 16.97.02 1.79.82 5.13 1.78 7.43 1.19 2.84 2.71 4.59 4.75 5.43 1.92.8 4.26.97 6.5.48 1.93-.43 5.3-1.7 7.5-2.82 2.2-1.12 7.6-4.71 12-7.96 4.4-3.26 12.11-9.27 17.12-13.37 5.02-4.09 11.55-8.69 14.5-10.21 3.22-1.66 7.79-3.02 11.38-3.38 3.3-.33 7.35-1.43 9-2.43 1.65-1.01 4.68-4.22 6.74-7.13 2.06-2.91 5.44-7.77 7.51-10.79 2.49-3.64 5.28-6.29 8.26-7.83 3.73-1.93 5.51-2.23 10.49-1.8 3.3.29 9.6 1.78 14 3.32l8 2.81c3.23 9.25 3.4 12.26 2.9 25-.58 14.56-.51 15.22 2.13 22.5 1.5 4.13 4.64 11.33 6.98 16 2.34 4.67 6.1 10.86 8.37 13.75 2.27 2.89 5.47 5.92 7.12 6.75 1.65.83 4.13 1.5 5.5 1.5 1.38 0 3.74-.62 5.25-1.37 1.51-.76 4.1-2.9 5.75-4.76 1.65-1.86 6.55-11.25 10.89-20.88 5.29-11.73 10.63-21.61 16.19-29.99 4.56-6.87 8.6-13.85 8.97-15.5.36-1.65.41-3.9.11-5-.31-1.1-1.48-3.01-2.61-4.25L636 808c10.46-.93 16.42-.9 20-.52 3.58.37 13.59 2 22.25 3.6 8.66 1.61 15.98 2.92 16.25 2.92.27 0 .75 3.04 1.05 6.75.31 3.71 1.7 12.38 3.1 19.25 1.4 6.88 3.62 15.42 4.93 19 1.31 3.58 3.32 7.4 4.47 8.5l2.09 2c7.11-3.87 11.84-7.92 15.1-11.5s7.46-9.65 9.35-13.5c1.89-3.85 4.1-10.15 4.91-14 .8-3.85 1.46-9.25 1.46-12v-5c23.67-7.29 39.31-11.87 50.04-14.89 10.73-3.02 24-6.89 29.5-8.6s12.02-4.01 14.5-5.11c2.48-1.11 5.79-3.22 7.36-4.7 1.57-1.49 5.45-6.07 8.6-10.2 3.16-4.12 7.5-9.1 9.64-11.06 2.48-2.26 6.46-4.4 10.9-5.86 3.85-1.26 8.69-3.37 10.75-4.69 2.25-1.43 4.71-4.29 6.15-7.14 1.32-2.61 3.16-7.67 4.1-11.25.97-3.69 3.04-8.23 4.8-10.5 1.7-2.2 9.45-10.52 17.23-18.5 7.78-7.98 15.72-16.98 17.65-20 1.93-3.02 5.6-9.55 8.16-14.5 3.19-6.18 8-12.92 15.33-21.5 5.87-6.87 12.11-14.75 13.86-17.5s3.77-6.8 4.5-9c.72-2.2 1.3-7.37 1.28-11.5-.02-4.12-.8-10.2-1.73-13.5-.94-3.3-3.21-8.25-5.07-11-1.85-2.75-4.5-5.67-5.89-6.5-2.51-1.48-2.66-1.37-14.33 10.54-6.48 6.62-16.29 15.88-21.79 20.57-5.5 4.7-13.6 11.24-18 14.54-4.4 3.3-11.37 8.27-15.5 11.04-4.12 2.77-11.77 7.63-17 10.8-5.23 3.17-16.25 9.13-24.5 13.26-8.25 4.12-20.4 9.71-27 12.41-6.6 2.71-17.4 6.67-24 8.81-6.6 2.13-17.4 5.24-24 6.89-6.6 1.65-16.73 3.91-22.5 5.01-5.77 1.1-15.9 2.74-22.5 3.63-6.6.9-21.67 1.88-33.5 2.19l-21.5.56c-4.26-4.07-5.94-6.94-6.47-9-.7-2.69-.6-5.17.35-8.75.72-2.75 2.46-7.25 3.85-10 1.4-2.75 4.95-8.2 7.9-12.1 2.96-3.91 13.31-16.28 23.01-27.5 9.7-11.22 20.53-24 24.06-28.4 3.53-4.4 8.4-10.7 10.82-14 2.43-3.3 7.1-10.05 10.38-15 3.28-4.95 8.56-14.17 11.72-20.5s7.1-15.33 8.76-20c1.66-4.67 3.84-12.1 4.86-16.5 1.46-6.3 1.91-12.98 2.14-31.5.16-12.93-.26-35.87-.93-51-.98-21.87-.98-30.47.01-42 .69-7.98 2.34-18.77 3.67-24 1.34-5.23 4.47-13.77 6.97-19s7.38-13.55 10.84-18.5c3.45-4.95 9.83-12.77 14.17-17.37 4.34-4.61 11.49-10.77 15.89-13.69 4.4-2.93 14.08-8.42 21.5-12.21 7.42-3.79 17.77-8.52 23-10.52s14-4.74 19.5-6.09c5.5-1.35 14.95-3.43 21-4.6 6.05-1.18 11.45-1.94 12-1.69.55.25 1.9-.2 3-1s2.78-2.67 3.74-4.14c.96-1.48 1.75-3.7 1.75-4.94.01-1.24-1.5-3.94-3.34-6-2.51-2.81-5.21-4.38-10.75-6.25-6.46-2.18-9.12-2.5-20.9-2.49-10.91.01-15.23.47-22.5 2.36-4.95 1.29-13.27 3.83-18.5 5.64-5.23 1.81-12.87 4.75-17 6.53-4.12 1.78-12 5.71-17.5 8.73-5.5 3.02-13.83 8.08-18.5 11.24-4.67 3.17-11.87 8.43-16 11.7-4.12 3.26-12.9 10.89-19.5 16.93-6.6 6.05-15.39 15.02-19.53 19.93-4.14 4.91-9.36 11.63-11.6 14.93-2.24 3.3-5.89 9.38-8.12 13.5-2.23 4.13-5.64 11.55-7.58 16.5-1.95 4.95-4.66 13.5-6.03 19s-3.08 13.6-3.81 18c-.97 5.85-1.26 17.55-1.05 43.5.25 33.14.14 36.03-1.79 43.5-1.14 4.4-3.94 12.73-6.22 18.5-2.29 5.77-7.81 17.7-12.28 26.5s-10.81 20.27-14.1 25.5c-3.29 5.23-9.18 13.77-13.08 19-3.9 5.23-11.08 13.33-15.95 18.01-4.87 4.68-11.34 10.16-14.36 12.16-3.02 2.01-8.42 5.04-12 6.73-3.58 1.69-11 4.27-16.5 5.73-8.8 2.35-11.99 2.68-26.65 2.77-9.16.05-16.52.33-16.37.6.16.27-2.03.13-4.85-.32-2.82-.44-8.84-2.58-13.38-4.75-6-2.86-9.95-5.64-14.5-10.21-4.65-4.67-7.44-8.7-10.88-15.75-2.55-5.21-6.23-13.97-8.19-19.47-1.95-5.5-4.67-14.05-6.03-19-1.36-4.95-3.4-13.73-4.51-19.5-1.12-5.77-2.49-13.65-3.05-17.5-.56-3.85-1.53-15.1-2.15-25-.86-13.53-.85-22.47.01-36 .64-9.9 1.8-22.5 2.57-28 .78-5.5 2.32-14.5 3.42-20 1.11-5.5 3.56-15.62 5.44-22.5 1.89-6.87 5.58-18.35 8.21-25.5 2.63-7.15 8.88-21.1 13.89-31 5.01-9.9 11.97-22.27 15.47-27.5s7.97-11.52 9.94-14c1.97-2.48 7.68-9.23 12.7-15s16.05-17.2 24.52-25.39c8.46-8.19 21.02-19.6 27.89-25.37 6.88-5.76 19.7-15.87 28.5-22.47 8.8-6.59 20.05-14.49 25-17.55 4.95-3.05 14.17-8.28 20.5-11.61s17.8-8.87 25.5-12.32c7.7-3.44 23.9-9.45 36-13.35 12.1-3.9 27.17-8.85 33.5-11 6.33-2.15 12.4-3.9 13.5-3.9 1.1.01 3.01-1.01 4.24-2.26l2.23-2.28c-3.96-13.95-5.99-18.9-7.07-20-1.64-1.67-3.22-1.99-9.68-1.93-4.56.04-12.53 1.16-19.47 2.75-6.46 1.47-14.79 2.88-18.5 3.11-3.71.24-11.25 1.39-16.75 2.55s-13.37 2.82-17.5 3.68c-4.12.86-9.98 1.38-13 1.14-3.59-.27-7.92-1.62-12.46-3.86-5.62-2.78-7.36-4.21-9-7.44-1.45-2.85-2.14-6.45-2.38-12.5-.23-5.55.39-12.84 1.77-21 1.83-10.8 1.98-13.76 1.1-21.75-.57-5.09-1.93-11.95-3.03-15.25-1.1-3.3-3.07-7.69-4.39-9.75-1.31-2.06-3.67-4.96-5.25-6.44-1.57-1.48-4.88-3.61-7.36-4.73-2.74-1.24-6.45-2-9.5-1.96-2.75.05-6.35.41-8 .82z"/><path id="Path 1" d="M787.5 135.03c-6.05 2.1-20.9 7.01-33 10.91-12.1 3.9-28.3 9.91-36 13.35-7.7 3.45-19.17 8.99-25.5 12.32-6.33 3.33-15.55 8.56-20.5 11.61-4.95 3.06-16.2 10.96-25 17.55-8.8 6.6-21.62 16.71-28.5 22.47-6.87 5.77-19.43 17.18-27.89 25.37-8.47 8.19-19.5 19.62-24.52 25.39s-10.73 12.52-12.7 15c-1.97 2.48-6.44 8.77-9.94 14-3.5 5.23-10.46 17.6-15.47 27.5-5.01 9.9-11.26 23.85-13.89 31-2.63 7.15-6.32 18.63-8.21 25.5-1.88 6.88-4.33 17-5.44 22.5-1.1 5.5-2.64 14.5-3.42 20-.78 5.5-1.93 18.1-2.57 28-.87 13.54-.87 22.46-.01 36 .63 9.9 1.6 21.15 2.15 25 .56 3.85 1.93 11.73 3.05 17.5 1.11 5.77 3.15 14.55 4.51 19.5 1.36 4.95 4.08 13.5 6.03 19 1.96 5.5 5.64 14.26 8.19 19.47 3.44 7.05 6.23 11.08 10.88 15.75 4.55 4.57 8.5 7.35 14.5 10.21 4.54 2.17 10.55 4.31 13.36 4.75 3.91.63 5.02.53 4.75-.43-.2-.69-.92-1.24-1.61-1.22-.69.01-4.4-1.53-8.25-3.44-4.49-2.21-9.28-5.72-13.35-9.77-5.28-5.25-7.44-8.53-12.71-19.32-3.5-7.15-8.18-18.51-10.4-25.25-2.22-6.74-5.14-17.76-6.48-24.5-1.34-6.74-2.91-17.2-3.5-23.25-.59-6.05-1.06-16.18-1.05-22.5 0-6.32.69-17.57 1.52-25 .83-7.43 2.67-19.12 4.09-26 1.41-6.87 4.14-17.68 6.05-24 1.91-6.32 5.42-16.45 7.78-22.5 2.37-6.05 6.19-15.05 8.49-20 2.3-4.95 6.47-13.05 9.28-18 2.81-4.95 8.94-14.85 13.64-22 4.69-7.15 14.46-20.87 21.7-30.5 7.25-9.62 18.8-24.02 25.68-32 6.88-7.98 18.52-20.53 25.88-27.9 7.36-7.37 18.33-17.66 24.38-22.87 6.05-5.22 14.38-12.05 18.5-15.19 4.13-3.13 13.35-9.76 20.5-14.73 7.15-4.97 17.73-11.94 23.5-15.49 5.77-3.55 17.92-10.76 27-16.01 9.08-5.26 25.27-13.81 36-19 10.73-5.2 20.06-10.2 20.74-11.13.98-1.33.98-1.66 0-1.58-.68.06-6.19 1.82-12.24 3.93zm121 129.94c-7.15 1.54-15.92 3.55-19.5 4.46-3.58.91-10.77 3.29-16 5.29-5.23 1.99-15.58 6.72-23 10.51s-17.1 9.28-21.5 12.21c-4.4 2.92-11.55 9.08-15.89 13.69-4.34 4.6-10.72 12.42-14.17 17.37-3.46 4.95-8.34 13.27-10.84 18.5s-5.63 13.77-6.96 19c-1.32 5.23-2.97 15.8-3.65 23.5-.99 11.19-.99 20.23.02 45 .69 17.05 1.09 39.85.88 50.67-.22 10.81-.32 19.59-.24 19.5.09-.1.32-1.07.5-2.17.19-1.1.62-2.23.95-2.5.33-.27 2.02-7.93 3.76-17 1.74-9.07 4.05-22.35 5.12-29.5 1.08-7.15 3.77-26.73 5.97-43.5 2.21-16.77 4.48-32.98 5.06-36 .57-3.02 2.19-9.1 3.6-13.5 1.4-4.4 4.54-12.05 6.97-17 2.44-4.95 6.68-12.04 9.42-15.75 3.13-4.22 10.15-11.09 18.75-18.34 7.56-6.38 17.58-14.11 22.25-17.18 4.67-3.08 11.88-7.13 16-9.01 4.13-1.87 9.75-4.28 12.5-5.34 2.75-1.06 9.5-3.08 15-4.5 5.5-1.41 12.02-3.64 14.5-4.95 2.48-1.31 5.27-2.96 6.21-3.66.94-.7 1.73-1.61 1.75-2.02.02-.41-.97-.71-2.21-.66-1.24.05-8.1 1.34-15.25 2.88z" fill="#757d84"/><path id="Path 2" class="shp0" d="M126.35 268.75c-.33.96.02 2.82.78 4.14.75 1.31 6.09 6.88 11.87 12.37 5.78 5.5 13.43 11.69 17 13.76 3.57 2.08 10.32 5.37 15 7.31 4.68 1.94 11.88 4.45 16 5.59 4.13 1.14 10.99 2.52 15.25 3.07 6.3.82 8.36.73 11-.46 1.79-.81 4.6-2.87 6.25-4.57 2.5-2.57 3-3.9 3-7.96 0-4.05-.5-5.39-3-7.97-1.75-1.81-6.13-4.31-10.5-5.99-4.12-1.58-12.9-4.47-19.5-6.42-6.6-1.95-22.12-6.04-34.5-9.09-12.37-3.06-23.75-5.55-25.27-5.54-1.74 0-3 .66-3.38 1.76zm12.15 211.29c-3.3.43-14.1 2.43-24 4.44-9.9 2.01-31.5 6.98-48 11.04-16.5 4.07-32.36 8.09-35.25 8.94-3.17.93-5.65 2.33-6.25 3.54-.67 1.33-.67 2.67 0 4 .55 1.1 2.91 2.87 5.25 3.94 2.34 1.06 11.67 4.18 20.75 6.92 11.38 3.45 19.91 5.37 27.5 6.21 8.35.92 14.25.94 24.5.1 7.42-.61 17.55-1.81 22.5-2.66 4.95-.85 13.28-2.73 18.5-4.17 5.22-1.45 12.76-4.14 16.75-5.99 4.24-1.96 8.04-4.49 9.14-6.1 1.05-1.51 2.69-5.23 3.65-8.25.96-3.02 1.54-7.07 1.28-9-.26-1.93-1.45-4.96-2.64-6.75-1.2-1.79-3.98-4.15-6.18-5.25-3.17-1.58-5.82-1.97-12.75-1.87-4.81.07-11.45.48-14.75.91zm33 158.79c-4.4 1.54-12.5 4.76-18 7.16-5.5 2.39-20.12 9.49-32.5 15.76-12.37 6.28-23.08 11.94-23.79 12.58-.72.64-1.3 1.84-1.3 2.67 0 .83.58 2.04 1.3 2.7.74.69 7.66 1.72 16.29 2.42 12.18.99 16.5.97 23-.11 4.4-.72 12.05-2.61 17-4.2 4.95-1.58 13.71-5.22 19.48-8.09 5.76-2.87 12.47-7.02 14.9-9.22 4.24-3.82 4.46-4.29 4.88-10.5.36-5.48.1-6.93-1.66-9.25-1.17-1.53-3.76-3.19-5.85-3.74-2.06-.55-4.2-1-4.75-.99-.55 0-4.6 1.27-9 2.81zm83.44 116.9c-4.43 2.22-9.56 5.86-12.69 9-2.89 2.9-5.25 5.72-5.25 6.27 0 .55 1.57 1.45 3.5 2 2.13.61 3.84 1.88 4.36 3.25.49 1.26.49 3.46 0 5-.47 1.51-1.87 3.27-3.11 3.9-1.24.64-4.72 2.01-7.75 3.04-3.03 1.04-6.75 3.11-8.27 4.6-1.53 1.49-2.76 3.72-2.75 4.96.01 1.48.62 2.24 1.77 2.23.96-.01 10.53-2.93 21.25-6.47 10.73-3.55 21.64-7.82 24.25-9.48 2.61-1.67 5.65-4.49 6.75-6.28 1.09-1.79 1.99-4.94 2-7 0-2.06-.91-6.11-2.02-9-1.11-2.89-3.03-6.27-4.25-7.53-1.61-1.64-3.36-2.26-6.29-2.25-2.66.02-6.64 1.32-11.5 3.76z"/></g></g></svg>
