<svg fill="currentColor" viewBox="0 0 256 256" xmlns="http://www.w3.org/2000/svg" fill-rule="evenodd"
	clip-rule="evenodd" stroke-linejoin="round" stroke-miterlimit="2">
	<path fill="none" d="M0 0h255.118v255.118H0z" />
	<g>
		<path
			d="M80.416 30.918c-1.033.08-4.202.376-7.043.658-2.84.277-7.803 1.028-11.033 1.667-3.226.643-7.24 1.568-8.921 2.065-1.681.498-4.32 1.672-5.869 2.606-1.549.939-4.061 2.794-5.578 4.127-1.516 1.329-3.967 4.216-5.437 6.409-1.864 2.779-3.047 5.202-3.892 7.982-.667 2.192-1.854 7.16-2.634 11.033-.784 3.873-1.85 10.001-2.371 13.616-.521 3.615-1.178 9.742-1.465 13.616-.286 3.873-.521 13.592-.53 21.597-.005 8.005.225 20.048.516 26.762.287 6.714.737 16.01 1 20.658s.681 12.992.93 18.546c.249 5.554.676 11.362.953 12.911a65.18 65.18 0 001.23 5.4c.399 1.422 1.46 4.061 2.352 5.869.888 1.807 2.522 4.554 3.62 6.103 1.104 1.55 3.08 3.77 4.4 4.93 1.314 1.16 3.511 2.681 4.882 3.371 1.371.695 3.653 1.601 5.076 2.019 1.422.413 4.169.981 6.103 1.258 2.165.31 6.686.39 11.738.202 4.522-.164 11.7-.713 15.963-1.22 4.264-.503 13.241-1.432 19.955-2.066 6.714-.634 17.386-1.414 23.71-1.728 8.24-.409 17.029-.456 30.987-.164 10.719.22 22.758.352 26.762.286 4.005-.061 8.865-.319 10.799-.573 2.324-.305 4.681-1.019 6.925-2.099 1.883-.906 4.583-2.732 6.043-4.098 1.455-1.357 3.432-3.625 4.399-5.048.963-1.422 2.395-3.85 3.174-5.399.78-1.549 2.052-4.615 2.831-6.808.775-2.192 1.949-6.629 2.606-9.859.653-3.226 1.634-9.353 2.174-13.616.545-4.263 1.3-12.395 1.685-18.076.381-5.681 1.01-14.766 1.4-20.189.385-5.423.906-14.611 1.159-20.424.249-5.808.456-15.212.46-20.893.005-5.681-.225-14.869-.507-20.424-.357-6.962-.793-11.188-1.418-13.615-.497-1.935-1.493-4.789-2.211-6.339-.718-1.549-2.033-3.873-2.92-5.164-.888-1.292-2.799-3.616-4.245-5.165-1.709-1.826-3.695-3.343-5.639-4.305-1.652-.822-3.849-1.634-4.882-1.813-1.033-.173-2.935-.601-4.226-.948-1.291-.348-3.93-.859-5.869-1.141-1.934-.282-8.381-.7-14.32-.925-6.611-.253-16.625-.23-25.823.056-10.723.334-17.982.315-25.353-.065-5.681-.291-17.09-.831-25.354-1.202-8.263-.366-17.137-.639-19.719-.601-2.583.037-5.54.136-6.573.22zm-2.817 4.221c-1.033.108-4.306.498-7.278.869-2.972.376-7.723 1.343-10.564 2.155-2.84.812-6.221 2.005-7.512 2.653-1.291.643-3.615 2.066-5.164 3.155-1.55 1.094-3.625 2.915-4.616 4.052-.986 1.141-2.61 3.76-3.606 5.826-1.037 2.155-2.413 6.254-3.225 9.625-.775 3.23-1.841 8.193-2.362 11.034-.521 2.84-1.263 7.7-1.652 10.798-.39 3.099-.939 8.804-1.221 12.677-.282 3.874-.512 13.273-.517 20.893-.004 7.62.216 20.081.493 27.701.273 7.62.601 15.541.733 17.607.127 2.066.563 8.935.967 15.259s1.038 13.301 1.404 15.494c.371 2.192 1.333 5.469 2.141 7.277.807 1.808 2.376 4.658 3.484 6.338 1.108 1.681 3.145 4.123 4.526 5.433 1.38 1.305 3.882 3.051 5.563 3.873 1.681.826 4.639 1.836 6.573 2.249 2.813.596 5.32.7 12.442.498 4.907-.141 11.348-.582 14.32-.982 2.972-.403 10.682-1.258 17.138-1.906 6.455-.648 17.019-1.493 23.475-1.882 6.456-.39 18.287-.709 26.292-.705 8.006 0 18.57.216 23.476.479 6.028.319 11.587.315 17.137-.009 7.273-.423 8.512-.615 10.799-1.69 1.422-.667 3.502-1.878 4.629-2.695 1.122-.822 2.92-2.653 3.991-4.076 1.07-1.418 2.723-4.164 3.671-6.103.954-1.935 2.184-4.888 2.742-6.569.554-1.681 1.508-5.376 2.113-8.216.611-2.841 1.648-9.813 2.31-15.494.657-5.681 1.733-18.569 2.385-28.64.653-10.071 1.418-23.17 1.7-29.11.31-6.493.399-17.817.221-28.405-.165-9.681-.493-19.085-.738-20.893-.239-1.808-.868-4.658-1.389-6.338-.526-1.681-1.752-4.414-2.723-6.081-.977-1.666-3.048-4.305-4.602-5.868-2.328-2.339-3.699-3.226-7.747-5.015-3.732-1.648-6.113-2.361-9.85-2.939-2.751-.427-10.55-.953-17.644-1.192-6.991-.235-21.781-.315-32.866-.179-13.216.164-23.625.052-30.245-.329-5.555-.314-16.222-.629-23.711-.694-7.488-.066-14.46-.038-15.493.065z" />
		<path
			d="M170.664 72.411c-1.277.666-2.925 1.779-3.658 2.465-.732.69-1.61 1.784-1.948 2.427-.338.648-.761 1.916-.939 2.817-.174.901-.09 2.54.192 3.639.277 1.098 1.193 2.765 2.033 3.699 1.362 1.526 1.827 1.733 4.343 1.935 2.357.192 3.202.037 5.165-.944 1.291-.648 3.244-2.15 4.343-3.343 1.098-1.192 2.206-2.695 2.465-3.343.258-.643.464-2.178.455-3.404-.009-1.319-.366-2.803-.878-3.638-.479-.775-1.578-1.878-2.451-2.451-1.145-.751-2.31-1.047-4.193-1.057-1.906-.009-3.225.31-4.929 1.198zm1.197 3.892c-1.165.742-2.587 1.798-3.169 2.347-.583.55-1.08 1.475-1.113 2.057a16.52 16.52 0 00.042 1.995c.047.517.39 1.414.756 1.996.366.582 1.141 1.253 1.723 1.493.695.286 1.681.249 2.869-.118.995-.305 2.563-1.187 3.488-1.962.921-.775 2.057-2.254 2.522-3.287.464-1.033.849-2.141.854-2.465.005-.324-.516-1.22-1.164-1.995-.921-1.108-1.554-1.409-2.935-1.409-1.141 0-2.512.479-3.873 1.348zM117.37 102.97c-1.549.46-4.93 1.61-7.512 2.558-2.582.949-6.174 2.653-7.982 3.794-1.807 1.146-4.718 3.517-6.465 5.273-1.751 1.76-4.052 4.465-5.113 6.014-1.061 1.549-2.624 4.296-3.474 6.104-.85 1.807-2.029 4.976-2.615 7.042-.85 2.982-1.076 4.968-1.094 9.625-.014 4.545.178 6.451.859 8.451.488 1.418 1.746 4.273 2.803 6.339 1.446 2.826 2.911 4.747 5.925 7.756 2.413 2.404 5.132 4.592 6.827 5.493 1.549.822 4.507 1.949 6.573 2.498 2.991.794 5.146 1 10.564 1.014 4.568.01 7.967-.235 10.329-.746 1.939-.418 4.892-1.282 6.573-1.925s4.742-2.033 6.808-3.094c2.066-1.057 5.23-2.911 7.028-4.113 1.799-1.202 4.982-3.878 7.067-5.944 2.089-2.066 4.563-5.024 5.507-6.573.939-1.55 2.249-4.137 2.911-5.752.657-1.615 1.512-4.413 1.901-6.221.39-1.807.705-4.925.709-6.925 0-2-.319-4.906-.713-6.456-.395-1.549-1.489-4.399-2.437-6.338-1.301-2.658-2.709-4.512-5.742-7.559-2.216-2.221-4.977-4.592-6.137-5.273-1.159-.676-3.591-1.779-5.399-2.451-2.319-.864-4.596-1.296-7.747-1.474-2.681-.155-5.211-.047-6.338.268-1.033.291-2.193.723-2.583.967-.389.244-.601.568-.469.718.131.15 3.033.69 6.456 1.202 3.422.507 7.329 1.366 8.686 1.902 1.356.54 3.624 1.68 5.047 2.535 1.422.859 4.07 3.113 5.887 5.01 1.817 1.896 3.869 4.615 4.564 6.033.695 1.418 1.611 3.953 2.038 5.634.544 2.155.699 4.155.526 6.808-.137 2.122-.78 5.39-1.465 7.512-.672 2.066-2.108 5.235-3.193 7.043-1.084 1.807-3.46 4.784-5.282 6.61-1.822 1.831-5.211 4.569-7.536 6.085-2.324 1.512-5.915 3.54-7.981 4.503-2.066.962-5.338 2.211-7.278 2.77-2.558.746-5.319 1.089-10.094 1.268-5.014.183-7.437.061-10.212-.522-2-.418-4.836-1.342-6.296-2.051-1.46-.709-4.127-2.663-5.93-4.343-1.798-1.681-4.089-4.423-5.089-6.104s-2.367-4.742-3.043-6.808c-.939-2.878-1.225-4.69-1.216-7.747.01-2.526.39-5.455 1.038-7.981.563-2.193 1.653-5.362 2.418-7.043.77-1.681 2.305-4.32 3.413-5.869 1.108-1.549 3.268-3.981 4.799-5.399 1.535-1.418 4.995-3.977 7.695-5.677 2.699-1.699 7.606-4.394 10.897-5.986 3.291-1.591 5.986-3 5.986-3.127 0-.127-.582-.22-1.291-.202-.709.019-2.559.413-4.108.874z" />
	</g>
</svg>
