<svg fill="currentColor" viewBox="0 0 256 256" xmlns="http://www.w3.org/2000/svg" fill-rule="evenodd" clip-rule="evenodd"
	stroke-linejoin="round" stroke-miterlimit="2">
	<path fill="none" d="M0 0h255.118v255.118H0z" />
	<path
		d="M129.098 89.942c4.116.205 5.833.602 8.737 2.03 2.175 1.067 4.875 3.11 6.779 5.134 1.741 1.85 3.892 4.923 4.784 6.827 1.211 2.591 1.681 4.681 1.867 8.284.157 3.182-.096 6.255-.753 9.038-.548 2.32-2.506 7.333-7.7 18.076l3.91 3.615c2.151 1.989 4.688 4.7 7.381 8.436l-.211 32.537c-.186 28.951-.319 32.717-1.205 34.193-.548.916-1.265 1.772-1.596 1.898-.332.133-12.4.44-53.023 1.127l-1.205-1.35c-1.054-1.181-1.229-2.362-1.404-9.568-.108-4.525.103-13.515.464-19.974.362-6.459.922-18.461 1.247-26.662.44-11.038.82-15.262 1.458-16.268.47-.747 3.043-3.115 5.718-5.272 2.67-2.157 4.863-4.122 4.863-4.369.006-.247-.795-1.47-1.772-2.711-.982-1.241-2.44-3.754-3.247-5.573-.808-1.82-1.814-5.074-2.23-7.231-.433-2.247-.638-6.103-.47-9.038.229-4.109.663-5.923 2.2-9.188 1.06-2.26 3.181-5.363 4.772-6.978 1.572-1.602 4.284-3.639 6.025-4.519 1.741-.885 4.585-1.867 6.327-2.181 1.741-.313 5.471-.458 8.284-.313zm-9.941 6.296c-1.712.639-4.525 2.513-6.52 4.339-2.56 2.337-3.85 4.097-4.784 6.519-.964 2.513-1.271 4.627-1.253 8.737.012 4.296.331 6.236 1.512 9.339.826 2.157 2.633 5.609 4.013 7.682 2.085 3.127 2.489 4.194 2.362 6.291-.139 2.301-.5 2.819-4.067 5.808a367.613 367.613 0 00-5.875 5.007c-1.922 1.693-1.952 1.795-1.566 5.489.211 2.073.066 9.869-.32 17.323-.391 7.459-.958 19.793-1.265 27.415-.301 7.622-.355 14.063-.126 14.31.228.247 10.755.247 23.39 0l22.968-.452c-.518-27.783-.343-39.64.133-48.202l.771-13.859c-5.019-4.169-7.496-6.404-8.737-7.658-1.488-1.506-2.265-2.85-2.277-3.94-.012-.91 1.199-3.826 2.681-6.477 1.482-2.652 3.573-6.99 4.651-9.641 1.621-4.001 1.959-5.64 1.983-9.64.03-4.194-.205-5.285-1.772-8.376-1.066-2.108-3.03-4.627-4.814-6.188-1.657-1.446-4.434-3.169-6.176-3.826-2.139-.807-4.579-1.181-7.531-1.162-2.73.018-5.501.457-7.381 1.162zm13.858-62.193c2.651.145 7.465.784 10.695 1.41 3.229.633 7.706 1.838 9.941 2.681 2.236.844 6.237 2.688 8.888 4.086 2.651 1.403 6.965 4.169 9.592 6.145 2.627 1.983 6.381 5.357 8.345 7.514 1.964 2.157 5.019 6.085 6.791 8.737 1.765 2.651 3.94 6.447 4.832 8.435.892 1.988 2.265 5.513 3.061 7.833.795 2.32 1.819 6.254 2.289 8.737.464 2.488 1.025 6.959 1.254 9.941.235 3.115.126 7.863-.266 11.147-.373 3.151-1.361 8.297-2.199 11.448-.831 3.151-2.88 8.574-4.549 12.051-1.669 3.476-4.272 8.086-5.784 10.243-1.512 2.157-4.14 5.507-5.827 7.453-1.693 1.946-5.109 5.176-7.597 7.176-2.483 2.007-5.941 4.549-7.683 5.652-1.741 1.109-3.838 2.012-4.669 2.012-.826 0-1.91-.403-2.41-.903-.501-.5-.904-1.446-.904-2.109s.747-1.76 1.657-2.428c.91-.675 3.826-2.802 6.477-4.724 2.651-1.922 6.724-5.507 9.056-7.966 2.326-2.452 5.344-6.091 6.694-8.08 1.356-1.988 3.555-5.784 4.887-8.435 1.331-2.651 3.103-6.989 3.94-9.641.838-2.651 1.856-7.127 2.26-9.941.451-3.121.614-8.062.415-12.653-.211-4.953-.771-9.183-1.633-12.352-.723-2.651-2.12-6.718-3.109-9.038-.988-2.32-3.048-6.248-4.585-8.737-1.699-2.753-5.278-6.995-9.152-10.845-4.435-4.405-7.911-7.243-11.466-9.34-2.808-1.657-7.418-3.868-10.243-4.922-2.826-1.049-7.309-2.368-9.96-2.941-3.115-.668-7.586-1.036-12.653-1.048-5.176-.012-9.569.343-12.955 1.036-2.814.585-7.833 2.115-11.147 3.399-3.313 1.289-8.465 3.922-11.448 5.844-2.982 1.928-7.435 5.393-9.893 7.694-2.458 2.308-6.08 6.363-8.05 9.014-1.97 2.651-4.905 7.532-6.519 10.846-1.621 3.314-3.676 8.736-4.568 12.05-1.458 5.405-1.632 7.086-1.656 16.269-.025 8.881.156 10.924 1.361 15.364.765 2.814 2.272 7.158 3.344 9.641 1.079 2.488 2.989 6.145 4.254 8.134 1.265 1.988 3.688 5.332 5.387 7.429 1.693 2.097 6.001 6.236 9.562 9.189 5.628 4.669 6.459 5.591 6.326 7.031-.126 1.422-.451 1.681-2.259 1.838-1.639.144-2.989-.38-6.025-2.338-2.157-1.386-6.11-4.724-8.785-7.411-2.681-2.693-6.236-6.923-7.899-9.412-1.669-2.482-3.917-6.278-5.001-8.435-1.079-2.157-2.718-6.224-3.64-9.038-.928-2.814-2.145-8.237-2.717-12.051-.753-5.055-.934-8.718-.657-13.556.205-3.646.928-9.069 1.603-12.051.669-2.983 2.199-7.863 3.392-10.846 1.193-2.982 3.188-7.182 4.441-9.339 1.247-2.157 3.464-5.543 4.929-7.531 1.464-1.989 4.41-5.381 6.543-7.538 2.127-2.157 5.501-5.164 7.489-6.682 1.989-1.512 5.514-3.874 7.833-5.248 2.32-1.368 6.592-3.447 9.49-4.616 2.898-1.168 7.508-2.669 10.243-3.326 2.736-.656 7.411-1.428 10.394-1.711 2.982-.283 7.592-.391 10.243-.247zm-2.41 29.356c3.314.126 7.652.656 9.64 1.18 1.989.519 6.194 2.218 9.339 3.766 4.646 2.284 6.64 3.73 10.605 7.677 2.681 2.675 5.893 6.621 7.14 8.778 1.247 2.157 3.103 6.357 4.127 9.34 1.699 4.97 1.856 6.097 1.892 13.557.03 6.724-.199 8.941-1.319 12.803-.748 2.567-2.272 6.502-3.399 8.737-1.12 2.235-3.356 5.808-4.971 7.935-1.608 2.127-4.012 4.778-5.338 5.887-1.476 1.235-3.055 2.018-4.067 2.006-1.042-.006-1.88-.458-2.259-1.217-.332-.662-.603-1.608-.603-2.109 0-.5 2.037-3.072 4.519-5.724 3.242-3.458 5.2-6.23 6.917-9.791 1.326-2.735 2.838-7.001 3.374-9.49.681-3.175.88-6.308.681-10.544-.181-3.717-.771-7.525-1.548-9.942-.693-2.157-2.284-5.657-3.531-7.784-1.254-2.127-3.935-5.513-5.953-7.532-2.025-2.012-5.14-4.543-6.929-5.615-1.79-1.079-5.285-2.694-7.773-3.592-3.941-1.421-5.447-1.632-11.749-1.656-6.435-.025-7.827.168-12.653 1.753-3.212 1.054-7.14 2.928-9.641 4.591-2.32 1.549-5.845 4.567-7.833 6.712-1.988 2.145-4.483 5.501-5.543 7.46-1.061 1.952-2.452 5.049-3.091 6.868-.645 1.82-1.5 5.484-1.91 8.135-.579 3.778-.585 5.929-.018 9.941.397 2.814 1.458 7.02 2.356 9.34.897 2.319 2.838 5.941 4.314 8.049 1.482 2.109 3.163 4.549 3.735 5.423.579.874 1.055 2.067 1.055 2.645.006.579-.675 1.392-1.5 1.808-1.242.62-1.79.596-3.115-.151-.886-.5-2.802-2.398-4.254-4.217-1.446-1.82-3.682-5.484-4.959-8.135-1.278-2.651-2.79-6.85-3.356-9.339-.639-2.79-1.025-6.941-1.012-10.845.018-4.459.403-7.749 1.301-11.147.705-2.651 2.205-6.718 3.344-9.038 1.139-2.32 3.501-6.104 5.248-8.405 1.753-2.302 4.947-5.634 7.104-7.399 2.157-1.766 5.953-4.266 8.435-5.55 2.489-1.283 6.146-2.802 8.134-3.374 1.989-.572 4.839-1.259 6.327-1.53 1.488-.272 5.423-.386 8.737-.265z"
		/>
</svg>
