<svg fill="currentColor" viewBox="0 0 256 256" xmlns="http://www.w3.org/2000/svg" fill-rule="evenodd" clip-rule="evenodd"
	stroke-linejoin="round" stroke-miterlimit="2">
	<path fill="none" d="M0 0h255.118v255.118H0z" />
	<g>
		<path
			d="M128.667 31.525c-.798.251-3.844.696-6.768.981-2.925.285-7.929 1.044-11.119 1.687-3.191.648-7.871 1.803-10.394 2.567-2.524.769-6.986 2.34-9.911 3.491-2.924 1.155-7.493 3.214-10.152 4.578-2.659 1.363-6.686 3.65-8.943 5.081-2.258 1.43-6.164 4.138-8.673 6.013-2.509 1.876-6.942 5.695-9.852 8.485-2.911 2.789-6.643 6.71-8.296 8.702-1.654 1.996-4.09 5.148-5.41 7.009-1.32 1.862-3.621 5.449-5.115 7.977-1.489 2.528-3.504 6.333-4.476 8.46-.977 2.127-2.63 6.367-3.684 9.427-1.054 3.06-2.499 8.281-3.21 11.602-1.204 5.599-1.296 6.885-1.286 17.404.01 9.944.145 11.994 1.102 16.437.6 2.789 1.924 7.575 2.94 10.635 1.015 3.061 3.045 7.953 4.505 10.878 1.465 2.924 3.979 7.275 5.589 9.668 1.61 2.393 4.52 6.188 6.463 8.436 1.949 2.248 5.608 5.913 8.132 8.141 2.523 2.234 6.985 5.652 9.91 7.6 2.925 1.953 7.711 4.738 10.636 6.193 2.924 1.455 7.493 3.451 10.152 4.438 2.659.981 6.903 2.335 9.427 3.002 2.523.672 6.874 1.643 9.668 2.166 3.747.696 8.112 1.015 16.679 1.203 9.233.203 12.787.092 17.404-.541 3.19-.44 8.3-1.354 11.36-2.031 3.06-.676 7.953-1.996 10.877-2.939 2.925-.938 7.818-2.78 10.878-4.09 3.06-1.31 8.059-3.809 11.119-5.554 3.06-1.746 7.517-4.54 9.91-6.212 2.393-1.668 6.42-4.762 8.944-6.87 2.523-2.113 6.55-5.951 8.943-8.538 2.393-2.586 5.874-6.734 7.735-9.214 1.861-2.48 4.791-6.874 6.507-9.76 1.721-2.886 4.254-7.861 5.632-11.052 1.378-3.19 3.065-7.652 3.752-9.91.686-2.258 1.696-6.285 2.243-8.944.546-2.658 1.242-7.662 1.547-11.119.411-4.689.411-7.938.005-12.811-.305-3.587-.977-8.59-1.504-11.119-.522-2.528-1.542-6.444-2.258-8.701-.715-2.258-2.165-6.067-3.219-8.46-1.054-2.393-3.065-6.309-4.472-8.702-1.412-2.393-4.158-6.415-6.111-8.944-1.953-2.528-5.298-6.333-7.43-8.465-2.132-2.127-5.729-5.308-7.986-7.063-2.258-1.759-5.685-4.206-7.614-5.438-1.929-1.228-5.845-3.409-8.702-4.835-2.857-1.431-7.373-3.418-10.031-4.413-2.659-.996-7.663-2.524-11.119-3.389-3.457-.871-8.731-1.929-11.724-2.359-2.992-.431-8.972-.885-13.294-1.016-4.404-.13-8.494-.034-9.306.228zm-8.944 5.385c-3.06.469-7.411 1.281-9.668 1.813-2.258.527-6.285 1.653-8.944 2.504-2.659.846-6.686 2.301-8.944 3.229-2.257.924-6.502 2.906-9.427 4.395-2.924 1.494-7.817 4.37-10.877 6.391-3.06 2.025-6.971 4.834-8.702 6.251-1.73 1.411-5.172 4.549-7.652 6.971-2.476 2.422-5.879 6.038-7.552 8.03-1.677 1.996-4.525 5.801-6.328 8.46-1.803 2.659-4.752 7.88-6.55 11.602-1.794 3.723-3.839 8.509-4.54 10.636-.706 2.127-1.803 6.043-2.451 8.701-.643 2.659-1.416 7.01-1.721 9.669-.329 2.852-.445 8.103-.29 12.811.179 5.453.59 9.504 1.301 12.811.57 2.659 1.687 6.792 2.48 9.185.797 2.393 2.542 6.638 3.877 9.427 1.334 2.795 3.567 6.817 4.96 8.944 1.397 2.127 4.259 5.922 6.371 8.431 2.108 2.514 5.792 6.285 8.185 8.378 2.393 2.093 6.633 5.342 9.427 7.218 2.794 1.87 6.981 4.36 9.306 5.52 2.325 1.165 6.406 2.988 9.064 4.052 2.659 1.063 7.281 2.576 10.273 3.364 2.993.783 7.397 1.76 9.79 2.166 2.393.406 7.29.952 10.877 1.209 4.293.309 9.007.304 13.778-.015 3.988-.266 9.645-.904 12.569-1.411 2.925-.508 8.04-1.673 11.361-2.587 3.326-.914 8.112-2.475 10.636-3.471 2.523-.991 7.314-3.166 10.635-4.829 3.326-1.663 8.325-4.53 11.119-6.377 2.794-1.847 6.817-4.747 8.944-6.444 2.127-1.697 5.69-4.83 7.914-6.966 2.228-2.137 5.801-6.063 7.942-8.722 2.142-2.658 5.183-6.792 6.759-9.185 1.576-2.393 4.138-6.961 5.69-10.152 1.556-3.191 3.611-8.088 4.568-10.877.957-2.79 2.311-7.793 3.012-11.119 1.131-5.357 1.281-7.174 1.305-15.953.029-7.726-.164-10.974-.87-14.745-.493-2.659-1.711-7.334-2.707-10.394-.991-3.06-2.794-7.624-3.998-10.152-1.204-2.529-3.776-6.986-5.709-9.911-2.621-3.959-5.26-7.053-10.331-12.11-4.844-4.839-8.272-7.768-11.883-10.181-2.794-1.861-6.928-4.384-9.185-5.603-2.258-1.223-6.609-3.215-9.669-4.428-3.06-1.213-8.499-2.959-12.086-3.877-3.587-.919-9.354-2.006-12.811-2.417-3.457-.411-10.201-.822-14.986-.914-6.57-.131-10.066.034-14.262.672z" />
		<path
			d="M136.402 99.51c-1.862.087-7.189.396-11.844.686-4.651.29-13.247 1.064-19.096 1.717-5.85.657-13.353 1.754-16.679 2.441-3.321.686-8.218 1.9-10.877 2.693-2.659.792-5.704 1.885-6.768 2.422-1.064.536-2.639 1.493-3.505 2.127-1.044.768-1.571 1.561-1.571 2.364 0 .706.353 1.344.846 1.537.464.179 1.827-.058 3.021-.532 1.195-.473 4.458-1.576 7.252-2.46 2.794-.88 8.339-2.263 12.328-3.07 3.988-.808 11.278-1.915 16.195-2.461 4.916-.541 13.729-1.339 19.579-1.764 7.498-.552 14.058-.706 22.238-.527 7.237.154 13.236.531 15.953 1.005 2.393.416 6.85 1.383 9.91 2.147 3.061.763 7.953 2.103 10.878 2.978 2.924.87 5.753 1.798 6.284 2.059.532.266 1.238.343 1.571.179.334-.165.605-.682.61-1.146 0-.464-.324-1.334-.726-1.934-.401-.599-1.764-1.6-3.026-2.228-1.262-.629-4.037-1.712-6.164-2.408-2.127-.691-6.584-1.924-9.91-2.731-3.321-.807-8.436-1.774-11.361-2.147-2.925-.372-9.016-.773-13.536-.889-4.52-.116-9.741-.14-11.602-.058zm-15.47 27.28c-3.723.222-10.249.764-14.503 1.199-4.254.435-10.017 1.204-12.811 1.707-2.795.497-7.358 1.59-10.152 2.422-2.795.831-5.947 1.953-7.01 2.489-1.064.537-2.321 1.334-2.794 1.77-.474.43-.856 1.169-.846 1.634.009.464.396 1.049.86 1.295.59.314 1.866.097 4.23-.725 1.861-.648 6.106-1.842 9.427-2.659 3.326-.817 8.982-1.89 12.569-2.383 3.587-.498 9.466-1.16 13.053-1.475 3.587-.314 11.859-.705 18.371-.875 6.511-.169 14.343-.164 17.403.01 3.06.179 7.194.686 9.185 1.131 1.997.445 5.802 1.455 8.461 2.239 2.808.831 5.646 1.368 6.768 1.285 1.692-.12 1.933-.29 1.933-1.319 0-.846-.483-1.46-1.692-2.156-.928-.532-3.761-1.586-6.284-2.335-2.524-.755-6.662-1.818-9.186-2.369-3.867-.846-6.608-1.03-17.403-1.151-7.049-.082-15.857.039-19.579.266zm-3.868 20.314c-3.988.193-10.514.696-14.503 1.117-3.988.42-9.48 1.31-12.206 1.982-2.727.672-5.826 1.658-6.889 2.19-1.485.739-1.934 1.247-1.934 2.175 0 .73.333 1.31.846 1.47.464.14 3.674-.397 7.131-1.199 3.456-.803 8.46-1.779 11.119-2.171 2.658-.391 7.773-.942 11.36-1.228 3.587-.285 12.618-.56 20.063-.618 10.838-.083 14.353.053 17.645.681 2.258.435 5.85 1.373 7.977 2.093 2.127.716 4.302 1.228 4.834 1.137.653-.112 1.006-.595 1.088-1.494.101-1.102-.189-1.484-1.692-2.243-.996-.503-3.336-1.378-5.197-1.949-1.861-.57-5.995-1.353-9.185-1.745-3.471-.425-9.297-.681-14.503-.633-4.786.039-11.965.237-15.954.435z"
			fill-rule="nonzero" />
	</g>
</svg>
