<svg fill="currentColor" viewBox="0 0 256 256" xmlns="http://www.w3.org/2000/svg" fill-rule="evenodd" clip-rule="evenodd"
	stroke-linejoin="round" stroke-miterlimit="2">
	<path fill="none" d="M0 0h255.118v255.118H0z" />
	<g>
		<path
			d="M177.569 41.247c-3.932.28-10.762.629-15.169.778-4.408.143-12.004.601-16.887 1.008-6.377.538-17.969.692-41.216.549-17.791-.109-38.782-.234-46.653-.286-10.101-.066-8.747.092-15.653 1.121-1.819.271-7.147 2.468-9.82 4.254-2.674 1.792-5.856 4.379-7.064 5.765-1.208 1.379-2.983 4.058-3.933 5.947-.956 1.889-2.45 5.627-3.314 8.301-.87 2.673-2.118 7.956-2.771 11.734-.658 3.779-1.448 9.961-1.757 13.739-.309 3.778-.716 11.763-.905 17.745a995.369 995.369 0 01-.921 21.181c-.321 5.667-1.082 15.455-1.695 21.752-.607 6.297-1.11 15.57-1.116 20.608-.006 5.604.332 11.157.864 14.311.561 3.291 1.58 6.594 2.834 9.159 1.076 2.203 2.942 5.129 4.139 6.497 1.213 1.379 3.589 3.16 5.335 3.99 2.644 1.259 4.333 1.574 10.59 1.957 4.093.252 23.023.687 42.074.968 19.05.28 42.234.795 51.519 1.145 9.285.349 28.095.675 41.788.727 20.161.068 26.647-.103 34.06-.905 5.037-.544 10.83-1.236 12.88-1.54 2.049-.303 6.039-1.362 8.872-2.352 2.834-.996 5.925-2.319 6.869-2.943.945-.624 3.218-2.576 5.055-4.339 1.838-1.763 3.933-4.367 4.66-5.781.727-1.414 1.746-3.99 2.272-5.725.699-2.33 1.088-7.092 1.477-18.318.292-8.346.796-20.064 1.116-26.045.315-5.982.813-22.984 1.094-37.781.303-15.817.309-30.087.005-34.633-.28-4.247-.898-9.21-1.368-11.019-.475-1.809-1.499-4.579-2.289-6.154-.785-1.574-2.594-4.018-4.007-5.438-1.414-1.419-4.317-3.446-6.44-4.511-2.124-1.064-5.793-2.467-8.158-3.114-2.358-.652-5.838-1.465-7.727-1.809-1.889-.349-9.749-.727-17.46-.841-7.71-.114-17.241.017-21.18.298zm-5.724 6.291c-3.624.24-12.765.784-20.322 1.208-8.329.458-25.456.749-43.505.727-16.371-.023-37.368-.149-46.653-.287 0 0-14.047-.294-19.091.962-4.703 1.17-9.17 4.866-11.174 6.572-2.862 2.421-4.053 3.955-5.53 7.098-1.041 2.204-2.415 5.81-3.056 8.014-.642 2.204-1.701 6.966-2.353 10.59-.653 3.623-1.448 11.477-1.758 17.459-.314 5.982-.824 14.872-1.127 19.749-.309 4.877-1.231 17.631-2.055 28.336-.819 10.704-1.494 22.811-1.494 26.904s.292 9.245.652 11.449c.361 2.204 1.162 5.553 1.786 7.442.619 1.889 2.09 4.699 3.269 6.251 1.179 1.545 3.177 3.331 4.436 3.967 1.803.91 4.047 1.248 10.59 1.608 4.563.246 20.539.59 35.491.762 14.958.171 33.505.566 41.216.887 7.71.315 24.454.824 37.208 1.133 14.866.361 27.906.367 36.35.017 7.241-.303 16.772-.956 21.18-1.454 4.408-.498 9.496-1.288 11.305-1.746 1.809-.457 5.032-1.671 7.156-2.69 2.312-1.11 5.146-3.12 7.058-5.009 2.273-2.244 3.578-4.144 4.516-6.589 1.122-2.925 1.351-4.756 1.54-12.307.121-4.883.47-14.54.773-21.466.303-6.927.807-16.2 1.122-20.608.309-4.408.824-15.61 1.145-24.901.32-9.29.584-21.071.59-26.189 0-5.117-.281-11.815-.624-14.883-.35-3.068-1.111-6.869-1.695-8.444-.589-1.574-1.666-3.766-2.393-4.865-.732-1.099-2.742-2.954-4.465-4.116-1.877-1.271-4.963-2.616-7.71-3.372-2.519-.687-7.413-1.591-10.877-2.009-3.829-.458-11.901-.733-20.607-.698-7.871.028-17.271.252-20.894.498z" />
		<path
			d="M113.605 95.731c-.303.395-1.11 4.064-1.797 8.157-.681 4.093-1.735 12.079-2.336 17.746-.601 5.667-1.402 13.91-1.786 18.318-.383 4.407-.721 12.771-.755 18.587l-.058 10.567c2.662 1.002 3.71.549 8.873-2.662 3.309-2.055 12.577-7.402 20.608-11.884 8.031-4.476 16.4-9.204 18.604-10.492 2.204-1.294 5.358-3.458 7.012-4.809 1.655-1.351 3.389-2.456 3.864-2.456.51 0 .744-.349.573-.858-.161-.475-.287-1.117-.287-1.431a.574.574 0 00-.572-.573c-.315 0-3.211-2.261-6.44-5.02-3.228-2.759-10.246-8.346-15.599-12.416a4081.303 4081.303 0 01-18.89-14.466c-5.038-3.887-9.451-7.058-9.812-7.046-.355.011-.898.343-1.202.738zm1.878 7.379c-.241.429-.298 1.162-.132 1.637.166.475.063 4.98-.235 10.018-.291 5.037-.91 12.891-1.373 17.459a1189.276 1189.276 0 00-1.706 19.033c-.481 5.902-.744 10.991-.584 11.306.16.315 1.505-.252 3.005-1.265 1.494-1.013 10.064-5.919 19.034-10.899 8.97-4.986 19.067-10.407 22.428-12.044 3.366-1.643 6.13-3.114 6.148-3.269.017-.155-1.964-1.443-4.397-2.856-2.438-1.414-8.42-5.376-13.303-8.799-4.883-3.423-12.834-9.216-17.671-12.88a2489.054 2489.054 0 01-9.795-7.441c-.835-.664-1.059-.664-1.419 0z" />
	</g>
</svg>
